<?xml version="1.0" encoding="utf-8"?>
<!-- Generator: Adobe Illustrator 24.3.0, SVG Export Plug-In . SVG Version: 6.00 Build 0)  -->
<svg version="1.1" id="Layer_1" xmlns="http://www.w3.org/2000/svg" xmlns:xlink="http://www.w3.org/1999/xlink" x="0px" y="0px"
	 viewBox="0 0 627.4 712.7" style="enable-background:new 0 0 627.4 712.7;" xml:space="preserve">
<style type="text/css">
	.st0{fill:#FABC01;}
	.st1{fill:#73003E;}
	.st2{fill:#C22243;}
	.st3{fill:#C41C42;}
	.st4{fill:#C21C41;}
</style>
<g>
	<polygon class="st0" points="547.1,491.3 547.1,221.8 313.7,87.1 80.3,221.8 80.3,491.3 313.7,626 	"/>
	<path class="st1" d="M313.7,13.4l-297,171.5v343l297,171.5l297-171.5v-343L313.7,13.4z M559.6,498.3L313.8,640.2L68,498.3V214.5
		l245.8-142l245.7,142V498.3z"/>
	<path class="st0" d="M313.7,72.5L67.9,214.5v283.8l245.8,141.9l245.7-141.9V214.5L313.7,72.5z M547.1,491.2L313.7,625.9L80.3,491.2
		V221.7L313.7,86.9l233.4,134.8V491.2z"/>
	<path class="st2" d="M242.5,644.7c-1.8-7.5-3.6-14.8-5.5-22.3c-2.6,4.5-5.1,8.8-7.6,13.2c-1-0.6-1.9-1.1-2.8-1.6
		c3.8-6.7,7.7-13.3,11.6-20.1c1.8,7.5,3.6,14.9,5.5,22.4c2.6-4.5,5.1-8.8,7.6-13.2c1,0.6,1.9,1.1,2.8,1.6
		C250.2,631.4,246.4,637.9,242.5,644.7z"/>
	<path class="st2" d="M125.2,554.9c-1,0.2-2,0.5-3,0.7c-0.2-0.8-0.4-1.6-0.7-2.3c-2.1-5.8-9.6-7.1-13.6-2.4c-3.4,4-2.7,9.5,1.6,12.4
		c3,2.1,7.5,0.8,8.6-1.5c-1.5-0.9-3-1.7-4.6-2.6c0.5-0.9,1-1.8,1.5-2.7c1.3,0.8,2.6,1.5,3.9,2.2c1.3,0.7,2.5,1.5,3.8,2.2
		c-2.5,6.1-9,8.3-14.4,5.3c-4.2-2.3-6.5-7.1-5.7-11.7c0.9-4.8,4.7-8.7,9.5-9.4C118.5,544.2,124.4,548.6,125.2,554.9z"/>
	<path class="st2" d="M175.8,599c-0.5,0.9-1,1.6-1.4,2.4c-0.4,0.8-0.9,0.9-1.7,0.8c-7-0.8-11.7-7.1-10.2-13.8c1-4.4,4.7-7.9,9.3-8.8
		c4.3-0.8,8.9,1.3,11.4,5c0.4,0.6,0.4,1,0,1.5c-0.5,0.7-0.9,1.5-1.5,2.5c-1.3-3-3.2-5.2-6.3-5.9c-1.8-0.4-3.6-0.1-5.2,0.7
		c-3.5,1.7-5.4,5.8-4.5,9.5C166.8,597.2,169.9,599.1,175.8,599z"/>
	<path class="st2" d="M156,571.6c-3.2,5.5-6.2,10.8-9.4,16.2c-1-0.6-1.8-1.1-2.8-1.6c3.1-5.4,6.2-10.7,9.4-16.2
		c-1.5-0.9-2.9-1.7-4.3-2.5c0.5-0.9,1-1.7,1.5-2.6c3.8,2.2,7.6,4.4,11.5,6.6c-0.5,0.8-0.9,1.6-1.5,2.6
		C158.9,573.3,157.5,572.4,156,571.6z"/>
	<path class="st2" d="M138.4,557.9c0.9,0.5,1.8,1,2.7,1.6c-3.6,6.3-7.3,12.6-10.9,18.9c-0.9-0.5-1.7-1-2.7-1.6
		C131.1,570.5,134.7,564.3,138.4,557.9z"/>
	<path class="st2" d="M215.3,627.6c-0.9-0.5-1.8-1-2.7-1.5c3.6-6.3,7.2-12.5,10.9-18.9c0.9,0.5,1.7,1,2.7,1.5
		C222.6,614.9,219,621.2,215.3,627.6z"/>
	<circle class="st3" cx="199.1" cy="604" r="11.5"/>
	<path class="st4" d="M356.1,374.4c-3.4-15-12.7-26.1-25.2-34c-15.8-10-32.4-18.7-48.8-27.7c-9.5-5.2-14.4-8.5-20.3-14.2
		c1,4.3,1.7,8.8,3.2,13c1.8,5.2,0.5,10.2-4.3,13.1c-7.2,4.3-14.2,2.8-19-4.1c-5.3-7.7-8.7-16.3-10.9-25.5
		c-3.5-14.8-8-29.1-17.5-41.3c-7.5-9.7-16.3-17.3-29.1-18.7c3.1-24.5,30.8-47.2,65.2-39.7c5.2-14.2,17-21,30.3-24.1
		c15-3.5,27.6-10.3,38.7-20.4c0.3-0.3,0.7-0.4,1.2-0.7c3.4,2.7,6.9,5.4,10.2,8.1c6.4,5.2,13.5,8.8,21.6,10.7
		c12.1,2.9,22.2,9.2,29.1,19.9c2.1,3.2,3.1,7.1,4.3,9.8c6.4-1.5,12.7-3.4,19.1-4.5c12.2-2,22.5,3.6,32.3,9.5
		c8.8,5.3,16.9,11.7,25.5,17.7c-5.1,3.4-9.9,6.1-14.1,9.5c-12.3,9.9-20.6,22.6-25.8,37.5c-3.4,9.5-6.7,19.1-11.1,28.2
		c-3,6.2-8,11.2-14.9,13.9c-11.3,4.4-27.4-1.4-35.2-12.7c-0.9-1.3-1.7-2.9-3-3.7c-1.3-0.8-3.6-1.6-4.6-1c-1.3,0.8-2.7,3.3-2.3,4.4
		c1,3.1,2.5,6.2,4.7,8.6c6.9,7.5,14.6,14.2,21.2,21.9c16.6,19.3,23.9,41.5,17.2,66.7c-3.7,13.8-11.1,25.8-24.6,32.2
		c-18.1,8.5-41.3,1.2-49.4-18.4c-6.5-15.7,2.4-30.6,18.3-33.8C343.6,373.5,349.8,374.4,356.1,374.4z M308.5,200.4
		c0,6-0.2,11.6,0.1,17.2c0.3,4.7,5.6,8.8,10.7,8.9c5.2,0,10.5-4,10.8-8.7c0.3-5.7,0.1-11.5,0.1-17.2c-2.4,0-4.3,0-6.6,0
		c0,4.8,0,9.3,0,13.7c0,2.9-0.6,5.4-4.2,5.4c-3.5,0-4.3-2.3-4.3-5.2c0-4.6,0-9.2,0-14C312.8,200.4,310.9,200.4,308.5,200.4z
		 M362.7,225c-12.7,0.6-23.3,18.9-14.8,26.5c2-3.1,3.6-6.2,8.5-6.1c3.7,0.1,7.2-5.7,5.2-8.9C358.8,232.1,360,228.7,362.7,225z
		 M295.3,251c-1.7-4.8-3.1-10.6-5.9-15.6c-2.9-5.2-8.3-8-15-10.1c3.4,4.4,5.4,7.9,3.7,13.1c-1.6,4.9,2.7,10.1,7,10.6
		C288.4,249.4,291.7,250.3,295.3,251z"/>
	<path class="st4" d="M225,429.1c5.8-9.8,5.4-19.2,2.6-29c14.8,1,29.8,3,38.1-13.2c-12.8,5.3-25.6,4.9-38.6,0.9
		c-1.9-0.6-3.7-1.6-5.6-2.5c-5.4-2.4-7.7-6.3-8.3-12.4c-1.2-11-6.4-20.1-16.1-26.1c-9.5-5.9-19-5.6-28.2,0.4c-3.1,2.1-5,1.3-7.1-0.8
		c-4.4-4.3-6.5-9.6-6.7-15.6c-0.3-10.7,2-20.5,11.6-27c1.8-1.2,4.2-2.2,6.4-2.3c9.4-0.6,18.6,0.2,26.1,6.9c0.3,0.3,0.8,0.3,1.2,0.5
		c-1-14-8.9-21.1-28.1-25.4c10.8-6.3,12-8.7,15.9-32.3c7.8,2.9,13.3,8.5,17.9,15.1c6.8,9.7,8.6,21.1,11.5,32.2
		c3.2,12.5,8,24.1,17.1,33.8c13,13.9,33.5,7.9,41.3-5.9c0.5-0.9,1-1.8,2-3.5c1.4,2,2.9,3.4,3.4,5.1c1.1,3.9,2.2,7.9,2.3,11.9
		c0.1,3.7,1.3,6.1,4.5,8.1c3.7,2.2,7.1,4.9,11.7,8.2c-0.6-5.6-1.1-10.3-1.6-14.9c13.1-2.3,34.8,8.5,42,21.2
		c-16.1,0.7-28.3,8.3-33.8,23.1c-5.2,14.3-3.7,28.7,8.2,40.6c-10.8,14.3-23.6,25.7-42.5,25.8c-6.9,0-14.4-2.5-20.6-5.7
		C242.4,441.4,234.1,435,225,429.1z"/>
	<path class="st4" d="M400.5,411.5c4.9,12.7,14,19,23.4,16.1c-8-5.6-12.1-13.4-12.2-22.6c-0.2-12.4,3-23.7,14.9-30.3
		c9.8-5.5,19.8-3.9,29.1,1.1c16.3,8.7,24.8,23,25.5,41.3c1.2,31.1-10.9,55.8-36.9,73.4c-0.5,0.3-1,0.6-1.5,0.9
		c-0.1,0.1-0.3-0.1,0.7,0.2c-2.5-7.5-4.2-14.7-7.1-21.3c-6.2-13.9-22.7-22.2-38.7-19.2c-13.2,2.5-24.7,8.6-35.2,16.4
		c-11.9,8.8-23,18.6-34.8,28.3c-4.5-3.4-9.5-7.3-14.7-10.9c-1.1-0.8-3-1.2-4.1-0.8c-21.1,7.4-35.7,3.1-48.1-18.1
		c25.7-1.9,49.6-7.1,63.4-32.3c12.6,10.8,27.5,12,43.1,8.1C383.1,437.7,393.4,426.6,400.5,411.5z M315.1,471.9
		c4.7,0,8.7-2.9,8.7-6.2c0-3.7-4-6.8-8.7-6.9c-4.8-0.1-9.1,3.3-8.9,7.1C306.3,469.2,310.5,472,315.1,471.9z"/>
	<path class="st4" d="M301.8,581.4c-5.6-16.4-15.5-28.2-34.3-30.8c1.8-3,3.6-6,5.4-9c4.5-7.6,7.3-15.6,7.8-24.6
		c0.6-11,10.7-21.1,19.8-20.8c12.2,0.5,19.4,4.6,25.8,15.1c3.6-3.4,7.1-6.8,10.7-10.2c15-14.3,30.6-27.8,49.1-37.2
		c16.6-8.5,34-6.4,43.5,11.9c5.4,10.2,4.8,21.6-0.5,32.3c-6,12.2-15.8,20.1-28.6,24.5c-6.3,2.1-12.7,4-19,6.4
		c-10.1,3.8-19.8,8.3-26.7,17.5c-1-5.2-1.6-10.1-2.9-14.8c-2.6-9.2-7.4-17.5-15.9-22c-10.1-5.3-17.4-5.7-23.4,2.1
		c-3.7,4.9-5.4,10.4-2.8,16.7c3.8,9.1,5.9,18.5,4.8,28.4C313.7,575.3,309.7,579.8,301.8,581.4z"/>
	<path class="st4" d="M273.7,495.3c-3.4,13.2-6.7,27-10.7,40.6c-1.2,4-4,7.7-6.7,11c-0.9,1.1-4.4,1.2-5.9,0.4
		c-6.7-3.7-12.8-8.5-19.6-11.8c-15-7.4-30.1-14.6-42.9-25.5c-11.9-10.1-17.7-23.3-14.3-38.8c2.8-12.3,10.9-21.5,23-26
		c5.3-2,11.1-3.1,16.8-3.6c6.1-0.5,10.9,3.3,14.8,7.3c8,8.2,15.4,17,23.1,25.5c4.3,4.7,8.4,9.6,13,14.1
		C266.6,491,269.8,492.6,273.7,495.3z"/>
	<path class="st4" d="M166,454.3c-12-4.8-17.2-14.6-18.8-26.1c-2.7-19.4,1.4-37.8,11.6-54.7c5.4-8.9,12.7-15.2,23.5-17
		c11.9-2,20.3,5.6,18.3,17.4c-0.9,5-2.9,9.8-4.4,14.7c2.8,1,6.6,2.1,10,3.8c9.7,5,14.7,18.1,11.1,28.4c-1.5,4.4-4.2,7.1-9.1,7.4
		c-13.8,0.9-25.4,6.6-34.9,16.4C170.5,447.4,168.5,450.9,166,454.3z"/>
	<path class="st4" d="M388.8,325.3c19.4-2.9,29.9-16.4,38.1-32.3c4.9-9.5,8.6-19.6,13.4-29.2c3.4-6.9,7.6-13.4,14.3-17.7
		c1.2-0.8,2.7-1.1,4.6-1.4c-11.7,18-3.6,34.9,2.6,52c-11.8,4.3-19.6,12.8-27.6,21.3c-8.5,8.9-18.7,15-31.7,13
		c-4.7-0.7-9.2-3-13.8-4.6C388.8,326.1,388.8,325.7,388.8,325.3z"/>
	<path class="st4" d="M396,340.5c13.5,3.1,25.6,3.6,36.3-4.1c6.1-4.4,11.2-10.1,17.1-14.7c5.4-4.2,11-8.4,18.8-9.3
		c-7.7,16.9-6.9,34.1-5.1,51.4c-12.8-6.1-26.1-7.6-39.9-3.3c-7.6,2.4-12.9,7.4-16.1,16.4C406.4,363.3,404.4,351.4,396,340.5z"/>
	<path class="st4" d="M321.5,581.8c4.5-8.8,5.7-17.3,3.5-26c-1-3.8-3.1-7.4-4.5-11.2c-1.2-3.1-3.1-6.3-2.8-9.3
		c0.2-2.7,2.5-6,4.9-7.4c3.6-2.3,7.4-0.2,10.3,2.3c8.7,7.7,11.5,18.1,12.4,29.2c0.9,11.2-4.3,19.4-15,22.2
		C327.8,582.4,325,581.8,321.5,581.8z"/>
	<path class="st0" d="M362.7,225c-2.7,3.7-3.9,7.1-1.1,11.5c2,3.2-1.4,9-5.2,8.9c-4.8-0.1-6.4,3-8.5,6.1
		C339.5,244,350.1,225.6,362.7,225z"/>
	<path class="st0" d="M295.3,251c-3.5-0.7-6.8-1.5-10.2-2c-4.4-0.6-8.6-5.7-7-10.6c1.6-5.2-0.3-8.7-3.7-13.1
		c6.7,2.1,12.1,4.9,15,10.1C292.1,240.4,293.5,246.2,295.3,251z"/>
</g>
</svg>
