<?xml version="1.0" encoding="utf-8"?>
<!-- Generator: Adobe Illustrator 24.3.0, SVG Export Plug-In . SVG Version: 6.00 Build 0)  -->
<svg version="1.1" id="Layer_1" xmlns="http://www.w3.org/2000/svg" xmlns:xlink="http://www.w3.org/1999/xlink" x="0px" y="0px"
	 viewBox="0 0 619 704.9" style="enable-background:new 0 0 619 704.9;" xml:space="preserve">
<style type="text/css">
	.st0{fill:#CCACAC;}
	.st1{fill:#73003E;}
	.st2{fill:#15003E;}
	.st3{fill:#73003E;stroke:#0FCE7C;stroke-width:3;stroke-miterlimit:10;}
	.st4{fill:#6B6B6B;}
	.st5{fill:#3F3F3F;}
	.st6{fill:#FFFFFF;stroke:#1D1D1B;stroke-miterlimit:10;}
	.st7{fill:#5EB144;}
	.st8{fill:#C31D42;}
	.st9{fill:#8C8C8C;}
	.st10{fill:#7E4A1B;stroke:#DE9C3B;stroke-width:0.5;stroke-miterlimit:10;stroke-dasharray:30,1,1,4,1,4;}
	.st11{fill:none;stroke:#DE9C3B;stroke-width:4;stroke-miterlimit:10;}
	.st12{fill:none;stroke:#F5C16B;stroke-width:0.25;stroke-miterlimit:10;}
	.st13{fill:#BDCF00;stroke:#4DB276;stroke-width:11;stroke-miterlimit:10;}
	.st14{fill:none;stroke:#FFFFFF;stroke-width:0.5;stroke-miterlimit:10;}
	.st15{fill:#FFFFFF;}
</style>
<polygon class="st0" points="542.9,487.4 542.9,217.9 309.5,83.1 76.1,217.9 76.1,487.4 309.5,622.1 "/>
<path class="st1" d="M309.5,9.4l-297,171.5v343l297,171.5l297-171.5v-343L309.5,9.4z M555.3,494.3L309.6,636.2L63.8,494.3V210.6
	l245.8-142l245.7,142V494.3z"/>
<path class="st0" d="M309.5,68.6L63.7,210.5v283.8l245.8,141.9l245.7-141.9V210.5L309.5,68.6z M542.9,487.2L309.5,622L76.1,487.2
	V217.7L309.5,83l233.4,134.8V487.2z"/>
<path class="st2" d="M238.3,639.8c-1.8-7.5-3.6-14.8-5.5-22.3c-2.6,4.5-5.1,8.8-7.6,13.2c-1-0.6-1.9-1.1-2.8-1.6
	c3.8-6.7,7.7-13.3,11.6-20.1c1.8,7.5,3.6,14.9,5.5,22.4c2.6-4.5,5.1-8.8,7.6-13.2c1,0.6,1.9,1.1,2.8,1.6
	C246,626.4,242.2,633,238.3,639.8z"/>
<path class="st2" d="M121,550c-1,0.2-2,0.5-3,0.7c-0.2-0.8-0.4-1.6-0.7-2.3c-2.1-5.8-9.6-7.1-13.6-2.4c-3.4,4-2.7,9.5,1.6,12.4
	c3,2.1,7.5,0.8,8.6-1.5c-1.5-0.9-3-1.7-4.6-2.6c0.5-0.9,1-1.8,1.5-2.7c1.3,0.8,2.6,1.5,3.9,2.2c1.3,0.7,2.5,1.5,3.8,2.2
	c-2.5,6.1-9,8.3-14.4,5.3c-4.2-2.3-6.5-7.1-5.7-11.7c0.9-4.8,4.7-8.7,9.5-9.4C114.3,539.3,120.2,543.6,121,550z"/>
<path class="st2" d="M171.6,594.1c-0.5,0.9-1,1.6-1.4,2.4c-0.4,0.8-0.9,0.9-1.7,0.8c-7-0.8-11.7-7.1-10.2-13.8
	c1-4.4,4.7-7.9,9.3-8.8c4.3-0.8,8.9,1.3,11.4,5c0.4,0.6,0.4,1,0,1.5c-0.5,0.7-0.9,1.5-1.5,2.5c-1.3-3-3.2-5.2-6.3-5.9
	c-1.8-0.4-3.6-0.1-5.2,0.7c-3.5,1.7-5.4,5.8-4.5,9.5C162.6,592.3,165.7,594.2,171.6,594.1z"/>
<path class="st2" d="M151.8,566.7c-3.2,5.5-6.2,10.8-9.4,16.2c-1-0.6-1.8-1.1-2.8-1.6c3.1-5.4,6.2-10.7,9.4-16.2
	c-1.5-0.9-2.9-1.7-4.3-2.5c0.5-0.9,1-1.7,1.5-2.6c3.8,2.2,7.6,4.4,11.5,6.6c-0.5,0.8-0.9,1.6-1.5,2.6
	C154.7,568.3,153.3,567.5,151.8,566.7z"/>
<path class="st2" d="M134.1,553c0.9,0.5,1.8,1,2.7,1.6c-3.6,6.3-7.3,12.6-10.9,18.9c-0.9-0.5-1.7-1-2.7-1.6
	C126.9,565.6,130.5,559.3,134.1,553z"/>
<path class="st2" d="M211.1,622.6c-0.9-0.5-1.8-1-2.7-1.5c3.6-6.3,7.2-12.5,10.9-18.9c0.9,0.5,1.7,1,2.7,1.5
	C218.4,610,214.7,616.3,211.1,622.6z"/>
<circle class="st3" cx="193.9" cy="599" r="11.5"/>
<path class="st4" d="M195.8,339.9c0-58.7,0-117.1,0-175.9c79.3,0,158.3,0,237.8,0c0,58.6,0,117,0,175.9
	C354.6,339.9,275.5,339.9,195.8,339.9z M430.3,337c0-57.2,0-113.9,0-170.8c-77.5,0-154.4,0-231.7,0c0,57,0,113.7,0,170.8
	C276,337,353,337,430.3,337z"/>
<path class="st4" d="M430.3,337c-77.3,0-154.3,0-231.7,0c0-57,0-113.8,0-170.8c77.3,0,154.2,0,231.7,0
	C430.3,223.1,430.3,279.8,430.3,337z M211.4,334c69,0,137.3,0,205.8,0c0-54.8,0-109.2,0-163.6c-68.8,0-137.3,0-205.8,0
	C211.4,225.1,211.4,279.4,211.4,334z"/>
<path d="M206.2,333.6c0-54.5,0-108.6,0-163.2c72.4,0,144.8,0,217.6,0c0,54.3,0,108.6,0,163.2C351.4,333.6,279.1,333.6,206.2,333.6z
	 M416.2,182.3c-67.7,0-134.8,0-202.3,0c0,44.9,0,89.4,0,133.9c67.7,0,134.9,0,202.3,0C416.2,271.4,416.2,227.2,416.2,182.3z
	 M298.7,324.2c5.4,4,29.3,3.7,32.4,0C320.5,324.2,310.3,324.2,298.7,324.2z"/>
<path d="M298.2,324.2h33.5C331.7,324.2,316,336.8,298.2,324.2z"/>
<path class="st5" d="M552.3,494.7c-55,0-110,0-165.3,0c1.1-8.7,3.7-15.8,11.7-20c9.9-5.2,19.6-10.8,29.3-16.5c2-1.2,4-3.3,4.9-5.4
	c3.9-9.9,8.3-19.7,10.8-30c1.5-6.3,1.3-13.8-0.4-20.1c-4.7-17.7-7.1-35.4-4.3-53.7c2.2-14.2,13.2-25.5,26.7-26.8
	c1.6-0.2,3.2-0.6,4.6-1.4c10.5-6.5,28.7-4.3,37.2,4.8c4.1,4.4,8.2,8.8,11.6,13.8c11.5,16.8,9.6,35.6,8,54.6
	c-1.3,16.6-1.6,33.2-1.8,49.9c-0.1,8.1,3.3,14.5,11.7,17.3c5.3,1.8,10.2,4.5,15.3,6.9C552.3,476.9,552.3,485.8,552.3,494.7z"/>
<path class="st5" d="M66,471.4c16.3-7.4,33.3-14.2,44.5-29.1c2.7-3.6,3.6-11.9,1.3-15.2c-7.3-10.3-11.1-21.9-15.6-33.4
	c-6.4-16.5-5.9-33,1.9-48.9c5-10.3,12.1-18.5,24.2-20.6c1.2-0.2,2.4-0.9,3.4-1.7c7.7-6.1,16.6-6.3,25.6-4.8c5.9,1,11.7,2.8,17.6,4.2
	c12.2,2.9,19.5,11.4,23.7,22.7c2.8,7.4-0.9,14-3.8,20.6c-1.1,2.6-2.1,5.3-2.5,8.1c-2.2,15.2-1.2,30.8-6.6,45.6
	c-2.2,5.9-5.3,9.9-10.6,12.6c-4.1,2-5.1,8.3-2,11.7c0.6,0.7,1.5,1.3,1.8,2.1c3.7,9.8,11.8,13.1,21,15.6
	c16.6,4.6,32.3,11.7,47.4,20.2c5.3,3,10.2,6.4,11.7,13.8c-61.3,0-122,0-182.8,0C66,487,66,479.2,66,471.4z"/>
<path class="st5" d="M376.8,494.5c-40.5,0-81,0-121.5,0c-0.2-0.4-0.5-0.9-0.7-1.3c6.5-3.8,13-7.6,19.5-11.4c6.2-3.6,12.5-7,18.4-11
	c5.6-3.8,6.6-13.2,2.7-18.9c-5.1-7.3-10.5-14.4-12-23.8c-3-19.3,2.1-35.5,16.6-48.2c5.8-5.1,19.4-6,26.3-2c0.8,0.4,1.6,0.9,2.5,1
	c14.7,3.2,20.9,10.9,22,27.3c0.8,11.4-0.5,22.7-4.7,33.2c-2.2,5.6-6.9,10.2-10.8,14.9c-4.4,5.5-3.6,12.2,2.4,15.6
	c11.5,6.5,23,12.8,34.5,19.3c1.9,1.1,3.7,2.6,5.5,3.9C377.2,493.6,377,494.1,376.8,494.5z"/>
<path class="st4" d="M416.2,182.3c0,44.9,0,89.2,0,133.9c-67.4,0-134.6,0-202.3,0c0-44.5,0-89.1,0-133.9
	C281.4,182.3,348.5,182.3,416.2,182.3z"/>
<ellipse class="st6" cx="389.2" cy="325.4" rx="3.4" ry="3.8"/>
<ellipse class="st6" cx="401.4" cy="325.4" rx="3.4" ry="3.8"/>
<ellipse class="st6" cx="413.5" cy="325.4" rx="3.4" ry="3.8"/>
<path class="st7" d="M378.1,298.6c-8.2,0-16.3,0-24.5,0c0-24,0-47.9,0-71.9c8.2,0,16.3,0,24.5,0
	C378.1,250.7,378.1,274.6,378.1,298.6z"/>
<path class="st8" d="M303.1,298.7c0-16,0-31.8,0-47.7c8.1,0,16.2,0,24.4,0c0,15.9,0,31.8,0,47.7
	C319.4,298.7,311.3,298.7,303.1,298.7z"/>
<path class="st9" d="M316.1,305.6c21.9,0,43.8,0,65.7,0c0.5,0,1.1,0,1.6,0c2,0.1,3.6,1.6,3.6,3.4c0.1,1.7-1.3,3.1-3.3,3.4
	c-0.6,0.1-1.2,0.1-1.7,0.1c-44.1,0-88.2,0-132.3,0c-0.9,0-1.8-0.1-2.6-0.3c-1.6-0.6-2.6-2.3-2.2-3.8c0.4-1.6,2-2.7,4-2.7
	c6.4,0,12.8,0,19.2,0C284.1,305.6,300.1,305.6,316.1,305.6z"/>
<path class="st7" d="M277,269.5c0,9.7,0,19.4,0,29.1c-8.1,0-16.2,0-24.4,0c0-9.7,0-19.4,0-29.1C260.7,269.5,268.8,269.5,277,269.5z"
	/>
<path class="st8" d="M286.7,228.8c-9.9,4-20,7.3-30.5,9.4c-1.7,0.3-2.6,1.5-2.4,2.8c0.3,1.4,1.7,2.2,3.4,1.9c1-0.2,2.1-0.4,3.1-0.6
	c10.1-2.3,19.9-5.6,29.4-9.5c0.4-0.2,0.7-0.3,1-0.2l-3.6-4.1C287,228.6,286.9,228.7,286.7,228.8z"/>
<path class="st8" d="M359.2,191.7c0-1.7-1.1-2.7-3-2.7c-3.7,0-7.5,0-11.2,0c-1.9,0-3.2,1-3.2,2.5c0,1.5,1.3,2.6,3.2,2.6
	c1.5,0,2.9,0,4.7,0c-7.6,6.8-15.9,12.3-24.7,17.4l2.6,4.7c0.2-0.2,0.4-0.4,0.7-0.5c8.8-5.1,17.1-10.7,24.6-17.2
	c0.2-0.1,0.3-0.2,0.7-0.5c0,1.5,0,2.8,0,4.1c0,1.6,1.2,2.8,2.8,2.7c1.7,0,2.8-1.1,2.8-2.8C359.2,198.5,359.2,195.1,359.2,191.7z"/>
<g>
	<ellipse class="st10" cx="307.6" cy="221.7" rx="18" ry="18.3"/>
	<ellipse class="st11" cx="307.6" cy="221.7" rx="19" ry="19.3"/>
	<g>
		<g>
			<path class="st12" d="M314.7,221.7C314.7,221.7,314.7,221.8,314.7,221.7c-0.4,0.3-0.7,0.5-1.1,0.7c-1,0.6-2.1,1.3-3.1,1.9
				c-0.9,0.6-1.9,1.1-2.8,1.7c-0.1,0-0.1,0-0.2,0c-0.8-0.5-1.6-0.9-2.3-1.4c-0.9-0.5-1.7-1-2.6-1.5c-0.7-0.4-1.4-0.8-2-1.2
				c-0.1-0.1-0.1-0.1,0-0.2c0.6-1,1.2-1.9,1.7-2.9c0.5-0.9,1.1-1.9,1.6-2.8c0.7-1.2,1.4-2.4,2.1-3.5c0.5-0.9,1-1.7,1.5-2.6
				c0.1-0.1,0.1-0.1,0.2,0c0.6,1,1.2,2.1,1.8,3.1c0.8,1.4,1.7,2.8,2.5,4.2c0.7,1.3,1.5,2.5,2.2,3.8
				C314.4,221.1,314.5,221.4,314.7,221.7C314.7,221.7,314.7,221.7,314.7,221.7z M307.5,210.2C307.5,210.2,307.5,210.2,307.5,210.2
				c-2.3,3.7-4.5,7.5-6.7,11.3c0,0,0.1,0,0.1,0c0.5-0.2,0.9-0.4,1.4-0.6c0.8-0.4,1.7-0.8,2.5-1.2c0.9-0.4,1.7-0.8,2.6-1.2
				c0.1,0,0.1-0.1,0.1-0.2c0-1.4,0-2.9,0-4.3c0-1.1,0-2.3,0-3.4C307.5,210.4,307.5,210.3,307.5,210.2z M314.3,221.5
				C314.3,221.5,314.4,221.5,314.3,221.5c-2.2-3.8-4.4-7.5-6.7-11.3c0,0,0,0,0,0c0,0,0,0.1,0,0.1c0,0.9,0,1.8,0,2.6
				c0,1.8,0,3.6,0,5.4c0,0.1,0,0.1,0.1,0.1c0.9,0.4,1.9,0.9,2.8,1.3c0.8,0.4,1.6,0.7,2.3,1.1C313.4,221,313.9,221.3,314.3,221.5z
				 M300.7,221.7c2.3,1.4,4.5,2.7,6.8,4.1c0-2.4,0-4.8,0-7.2C305.2,219.6,303,220.7,300.7,221.7z M307.7,218.6c0,2.4,0,4.8,0,7.2
				c2.3-1.4,4.5-2.7,6.7-4.1C312.2,220.7,309.9,219.6,307.7,218.6z"/>
			<path class="st12" d="M314.8,223C314.8,223,314.8,223,314.8,223c-0.5,0.8-1,1.5-1.5,2.2c-0.4,0.5-0.7,1.1-1.1,1.6
				c-0.8,1.1-1.6,2.2-2.3,3.3c-0.5,0.8-1.1,1.5-1.6,2.3c-0.2,0.3-0.4,0.5-0.5,0.8c-0.1,0.1-0.1,0.1-0.2,0c-0.5-0.8-1.1-1.5-1.6-2.3
				c-0.7-1-1.3-1.9-2-2.9c-0.5-0.7-1-1.5-1.5-2.2c-0.5-0.8-1.1-1.6-1.6-2.4c-0.1-0.1-0.2-0.3-0.3-0.4c0,0,0-0.1,0-0.1
				c0,0,0.1,0,0.1,0c1.1,0.7,2.2,1.3,3.3,2c1.1,0.6,2.2,1.3,3.2,1.9c0.2,0.1,0.3,0.2,0.5,0.3c0,0,0.1,0,0.1,0
				c0.9-0.6,1.8-1.1,2.8-1.7c0.9-0.6,1.9-1.1,2.8-1.7c0.5-0.3,1-0.6,1.5-0.9C314.7,222.9,314.7,222.9,314.8,223
				C314.8,222.9,314.8,223,314.8,223z M300.9,223.4C300.9,223.4,300.9,223.4,300.9,223.4c2.2,3.2,4.4,6.3,6.6,9.4c0,0,0,0,0,0
				c0,0,0-0.1,0-0.1c0-1.8,0-3.5,0-5.3c0-0.1,0-0.1-0.1-0.2c-0.6-0.4-1.2-0.7-1.9-1.1c-0.7-0.4-1.3-0.8-2-1.2
				c-0.6-0.3-1.1-0.7-1.7-1C301.5,223.7,301.2,223.6,300.9,223.4z M314.3,223.4C314.3,223.4,314.3,223.4,314.3,223.4
				c0,0-0.1,0-0.1,0c-1.4,0.8-2.7,1.6-4.1,2.5c-0.8,0.5-1.5,0.9-2.3,1.4c-0.1,0-0.1,0.1-0.1,0.2c0,0.2,0,0.5,0,0.7c0,1.5,0,3,0,4.5
				c0,0,0,0.1,0,0.1c0,0,0,0,0,0C309.9,229.7,312.1,226.5,314.3,223.4z"/>
			<g>
				<path class="st12" d="M307.5,210.2c0,0.1,0,0.2,0,0.3c0,1.1,0,2.3,0,3.4c0,1.4,0,2.9,0,4.3c0,0.1,0,0.1-0.1,0.2
					c-0.9,0.4-1.7,0.8-2.6,1.2c-0.8,0.4-1.7,0.8-2.5,1.2c-0.5,0.2-0.9,0.4-1.4,0.6c0,0,0,0-0.1,0C303,217.7,305.3,214,307.5,210.2
					C307.5,210.2,307.5,210.2,307.5,210.2z"/>
			</g>
			<g>
				<path class="st12" d="M314.3,221.5c-0.5-0.2-1-0.5-1.5-0.7c-0.8-0.4-1.6-0.7-2.3-1.1c-0.9-0.4-1.9-0.9-2.8-1.3
					c-0.1,0-0.1-0.1-0.1-0.1c0-1.8,0-3.6,0-5.4c0-0.9,0-1.8,0-2.6c0,0,0-0.1,0-0.1c0,0,0,0,0,0C309.9,214,312.1,217.7,314.3,221.5
					C314.4,221.5,314.3,221.5,314.3,221.5z"/>
			</g>
			<g>
				<path class="st12" d="M300.7,221.7c2.3-1,4.5-2.1,6.8-3.1c0,2.4,0,4.8,0,7.2C305.2,224.4,303,223.1,300.7,221.7z"/>
			</g>
			<g>
				<path class="st12" d="M307.7,218.6c2.2,1,4.5,2.1,6.7,3.1c-2.3,1.4-4.5,2.7-6.7,4.1C307.7,223.4,307.7,221,307.7,218.6z"/>
			</g>
			<g>
				<path class="st12" d="M300.9,223.4c0.3,0.2,0.6,0.4,0.9,0.5c0.6,0.3,1.1,0.7,1.7,1c0.7,0.4,1.3,0.8,2,1.2
					c0.6,0.4,1.2,0.7,1.9,1.1c0.1,0,0.1,0.1,0.1,0.2c0,1.8,0,3.5,0,5.3c0,0,0,0.1,0,0.1c0,0,0,0,0,0
					C305.3,229.7,303.1,226.5,300.9,223.4C300.9,223.4,300.9,223.4,300.9,223.4z"/>
			</g>
			<g>
				<path class="st12" d="M314.3,223.4c-2.2,3.1-4.4,6.3-6.6,9.4c0,0,0,0,0,0c0,0,0-0.1,0-0.1c0-1.5,0-3,0-4.5c0-0.2,0-0.5,0-0.7
					c0-0.1,0-0.1,0.1-0.2c0.8-0.5,1.5-0.9,2.3-1.4c1.4-0.8,2.7-1.6,4.1-2.5C314.2,223.4,314.2,223.4,314.3,223.4
					C314.3,223.4,314.3,223.4,314.3,223.4z"/>
			</g>
		</g>
	</g>
</g>
<path class="st13" d="M313.8,318.7"/>
<path class="st13" d="M312.5,322.2"/>
<g>
	<path class="st14" d="M316.4,322.5c2.4,1.8,1.7,3.5,0.4,5.1"/>
	<line class="st15" x1="317.9" y1="324.6" x2="317.9" y2="324.6"/>
	<path class="st15" d="M315.3,326.1c1.1,0.8,2.2,1.6,3.2,2.3c0.1,0.1,0.2,0.2,0.2,0.3c0,0.8,0,1.7,0,2.5c-0.2,0-0.3,0-0.4,0
		c-1.5,0-3.1,0-4.6,0c-3.4,0-6.2-2.4-6.6-5.6c-0.3-2.6,1.1-5.1,3.6-6.3c0.2-0.1,0.3-0.2,0.3-0.5c0-0.3,0-0.7,0-1
		c0-0.3,0.1-0.5,0.4-0.5c0.3,0,0.5,0.2,0.5,0.5c0,0.3,0,0.7,0,1.1c0.4-0.1,0.8-0.2,1.2-0.2c0-0.3,0-0.6,0-0.9c0-0.3,0.1-0.4,0.4-0.4
		c0.3,0,0.4,0.2,0.5,0.4c0,0.3,0,0.6,0,0.9c2,0.1,3.6,0.8,4.8,2.2c-0.5,0.5-1,1-1.5,1.5c-0.5,0.5-1.1,0.9-1.6,1.4
		c-0.2,0.1-0.3,0.3-0.2,0.5C315.8,324.9,315.7,325.5,315.3,326.1z M317.5,330.2c0.2-0.7,0.1-1.2-0.6-1.5c-0.7-0.4-1.4-0.9-2-1.4
		c-0.4-0.3-0.8-0.5-1.3-0.4c-1.1,0-2-0.9-1.9-1.9c0-1,1.1-1.9,2.1-1.8c0.6,0.1,0.9-0.2,1.3-0.5c0.1-0.1,0.3-0.2,0.4-0.3
		c0.5-0.5,1.1-0.9,1.6-1.4c-1.6-1.1-3.3-1.4-5.1-0.9c-0.1,0-0.2,0.2-0.2,0.3c0,0.6,0,1.2,0,1.8c0,0.2-0.1,0.4-0.2,0.4
		c-0.3,0.2-0.6,0-0.6-0.4c0-0.5,0-1.1,0-1.7c-0.1,0.1-0.2,0.1-0.3,0.1c-1.4,0.9-2.1,2.1-2.4,3.6c-0.5,2.5,1.4,5.2,4,5.8
		c0.5,0.1,1,0.2,1.5,0.2C315.1,330.2,316.3,330.2,317.5,330.2z M313.7,325.7c0.4,0,0.8-0.3,0.8-0.7c0-0.4-0.4-0.8-0.8-0.8
		c-0.4,0-0.8,0.3-0.8,0.7C312.9,325.4,313.3,325.7,313.7,325.7z"/>
</g>
</svg>
